# xmcd CD database file
#
# Track frame offsets:
#	150
#	8925
#	24967
#	32382
#	47445
#	64282
#	73627
#	87062
#	100275
#	120100
#	129007
#	136762
#	145070
#	162527
#	171575
#	181560
#	193677
#
# Disc length: 2687 seconds
#
# Revision: 0
# Processed by: cddbd v1.5.2PL0 Copyright (c) Steve Scherf et al.
# Submitted via: CDex 1.72
#
DISCID=d10a7d11
DTITLE=Hebert, Brian [CDN-99-OVM-Fiddle Storm-fiddle) - Fiddle Storm
DYEAR=1999
DGENRE=Country
TTITLE0=Rolling Thunder Reel
TTITLE1=Winter Moon
TTITLE2=Crooked Stovepipe (trad)
TTITLE3=Shades of Dawn
TTITLE4=Raemona
TTITLE5=Black Mountainm Rag (L.Keith)
TTITLE6=Pembroke
TTITLE7=Stones In Yer Clickers
TTITLE8=Pam's Clog
TTITLE9=Shady Nook Jig
TTITLE10=Fiddlers Valley Reel
TTITLE11=Bonechere Point Strasphey
TTITLE12=Sunset On The Ottawa
TTITLE13=Pembroke Reel (J.Mooring)
TTITLE14=Sam's Plaid Jig
TTITLE15=Paul's Hornpipe
TTITLE16=Buck Fever Rag (R.Hill)
EXTD=YEAR: 1999
EXTT0=
EXTT1=
EXTT2=
EXTT3=
EXTT4=
EXTT5=
EXTT6=
EXTT7=
EXTT8=
EXTT9=
EXTT10=
EXTT11=
EXTT12=
EXTT13=
EXTT14=
EXTT15=
EXTT16=
PLAYORDER=
